# xmcd
#
# Track frame offsets:
#	150
#	22705
#	36149
#	52116
#	69016
#	81970
#	97695
#	114961
#	127912
#	140406
#	161191
#	176013
#	189400
#	203910
#
# Disc length: 2977 seconds
#
# Revision: 0
# Processed by: cddbd v1.5.2PL0 Copyright (c) Steve Scherf et al.
# Submitted via: EasyCDDAExtractor 11.5.3.1
#
DISCID=ad0b9f0e
DTITLE=Various Artist - Mr Music Country  03 2009
DYEAR=1900
DGENRE=Country
TTITLE0=Tommy Alverson - My way or the highway
TTITLE1=Leland Martin - Home is where the Honky Tonk is (Ext.ver.)
TTITLE2=Kenny and Amanda Smith Band - Do the best you can
TTITLE3=Kevin Banford - The stars of old Mexico
TTITLE4=Norville Dollar - She's got it and gone
TTITLE5=Gaylynn Robinson - Together forever
TTITLE6=John Rex Reeves - Dance with me Molly
TTITLE7=T.C. Taylor - She's in the bedroom crying
TTITLE8=Becky Hobbs - Boys in the band (Never released before)
TTITLE9=Mike Aiken - Talk to your daughter
TTITLE10=Don Redmond Band - Modern day interstate gypsy
TTITLE11=Ed Bentley - Maybe he could miss her more
TTITLE12=Abalone Dots - The ballad of Lee McKay
TTITLE13=Johnny Bush - One shot at a time
EXTD=
EXTT0=
EXTT1=
EXTT2=
EXTT3=
EXTT4=
EXTT5=
EXTT6=
EXTT7=
EXTT8=
EXTT9=
EXTT10=
EXTT11=
EXTT12=
EXTT13=
PLAYORDER=
